<?xml version="1.0" standalone="no"?>
<!DOCTYPE svg PUBLIC "-//W3C//DTD SVG 20010904//EN"
 "http://www.w3.org/TR/2001/REC-SVG-20010904/DTD/svg10.dtd">
<svg version="1.0" xmlns="http://www.w3.org/2000/svg"
 width="100.000000pt" height="100.000000pt" viewBox="0 0 100.000000 100.000000"
 preserveAspectRatio="xMidYMid meet">
<metadata>
Created by potrace 1.14, written by Peter Selinger 2001-2017
</metadata>
<g transform="translate(0.000000,100.000000) scale(0.100000,-0.100000)"
fill="#000000" stroke="none">
<path d="M0 500 l0 -500 500 0 500 0 0 500 0 500 -500 0 -500 0 0 -500z m540
295 l0 -125 168 -2 167 -3 0 -40 0 -40 -167 -3 -168 -2 0 -40 0 -40 170 0 170
0 -2 -207 -3 -208 -42 -3 -43 -3 0 170 0 171 -125 0 -125 0 0 -170 0 -170 -40
0 -40 0 -2 167 -3 168 -122 3 -123 3 0 -171 0 -171 -42 3 -43 3 -1 208 -2 207
169 0 169 0 0 40 0 40 -167 2 c-183 3 -184 4 -169 64 l6 24 165 0 165 0 0 125
0 125 40 0 40 0 0 -125z"/>
</g>
</svg>
